<svg width="175" height="45" viewBox="0 0 175 45" fill="none" xmlns="http://www.w3.org/2000/svg">
<path d="M9.72323 28.431C10.22 22.882 12.8615 18.0364 16.7657 14.6159C13.9617 15.0756 11.5755 14.5286 10.3592 12.8781C8.23304 9.99093 10.4335 4.7729 15.2755 0.837536C7.06317 3.95916 0.925996 11.4897 0.0950166 20.7488C-0.884517 31.6492 5.80509 41.4738 15.7443 45C11.5337 40.7704 9.15222 34.8076 9.72323 28.431Z" fill="#134CB3"/>
<path d="M17.8566 10.2668C15.9904 11.7517 13.6321 11.9172 12.5876 10.6346C11.543 9.3519 12.2115 7.10377 14.0777 5.61882C15.944 4.13386 18.3023 3.96836 19.3468 5.25103C20.3867 6.5337 19.7228 8.78183 17.8566 10.2668Z" fill="#134CB3"/>
<path d="M38.2829 17.2042C37.7862 22.7533 35.1447 27.5989 31.2405 31.0194C34.0444 30.5596 36.4306 31.1067 37.6469 32.7572C39.7731 35.6443 37.5726 40.867 32.7307 44.7977C40.943 41.6761 47.0801 34.1502 47.9111 24.8865C48.8907 13.9861 42.201 4.16145 32.2618 0.635254C36.477 4.86485 38.8586 10.8277 38.2829 17.2042Z" fill="#134CB3"/>
<path d="M30.1542 35.3685C32.0204 33.8836 34.3787 33.718 35.4232 35.0007C36.4677 36.2834 35.7993 38.5315 33.933 40.0165C32.0668 41.5014 29.7085 41.6669 28.664 40.3843C27.6194 39.1016 28.2879 36.8535 30.1542 35.3685Z" fill="#134CB3"/>
<path d="M25.5405 0.809969C38.8718 12.3772 29.8532 22.551 24.7117 29.2394C18.9193 36.7753 24.7585 44.9449 24.7585 44.9449C23.7564 44.2463 11.2306 35.2139 23.3631 21.8333C32.85 11.3732 25.5405 0.809969 25.5405 0.809969Z" fill="#134CB3"/>
<path d="M16.1575 41.9566C15.93 41.9566 15.7443 41.7727 15.7443 41.5474C15.7443 41.3221 15.93 41.1382 16.1575 41.1382C16.385 41.1382 16.5707 41.3221 16.5707 41.5474C16.5707 41.7727 16.385 41.9566 16.1575 41.9566Z" fill="#134CB3"/>
<path d="M15.1408 38.7384C14.7509 38.7384 14.4352 38.4258 14.4352 38.0396C14.4352 37.6534 14.7509 37.3408 15.1408 37.3408C15.5308 37.3408 15.8465 37.6534 15.8465 38.0396C15.8465 38.4258 15.5308 38.7384 15.1408 38.7384Z" fill="#134CB3"/>
<path d="M14.8809 35.3271C14.3656 35.3271 13.9478 34.9134 13.9478 34.4031C13.9478 33.8928 14.3656 33.479 14.8809 33.479C15.3962 33.479 15.814 33.8928 15.814 34.4031C15.814 34.9134 15.3962 35.3271 14.8809 35.3271Z" fill="#134CB3"/>
<path d="M15.3683 31.8607C14.7695 31.8607 14.282 31.378 14.282 30.7849C14.282 30.1918 14.7695 29.7091 15.3683 29.7091C15.9672 29.7091 16.4546 30.1918 16.4546 30.7849C16.4546 31.378 15.9672 31.8607 15.3683 31.8607Z" fill="#134CB3"/>
<path d="M16.5103 28.4816C15.8558 28.4816 15.3265 27.9575 15.3265 27.3093C15.3265 26.6611 15.8558 26.137 16.5103 26.137C17.1649 26.137 17.6941 26.6611 17.6941 27.3093C17.6941 27.9575 17.1649 28.4816 16.5103 28.4816Z" fill="#134CB3"/>
<path d="M18.1723 25.2634C17.4945 25.2634 16.9467 24.7209 16.9467 24.0497C16.9467 23.3785 17.4945 22.836 18.1723 22.836C18.8501 22.836 19.3979 23.3785 19.3979 24.0497C19.3932 24.7209 18.8454 25.2634 18.1723 25.2634Z" fill="#134CB3"/>
<path d="M20.2196 22.2246C19.5464 22.2246 19.0033 21.6867 19.0033 21.0201C19.0033 20.3534 19.5464 19.8156 20.2196 19.8156C20.8927 19.8156 21.4359 20.3534 21.4359 21.0201C21.4405 21.6821 20.8927 22.2246 20.2196 22.2246Z" fill="#134CB3"/>
<path d="M22.1786 19.0662C22.8196 19.0662 23.3392 18.5516 23.3392 17.9168C23.3392 17.2821 22.8196 16.7675 22.1786 16.7675C21.5377 16.7675 21.018 17.2821 21.018 17.9168C21.018 18.5516 21.5377 19.0662 22.1786 19.0662Z" fill="#134CB3"/>
<path d="M23.6456 15.6043C24.2251 15.6043 24.6948 15.1392 24.6948 14.5653C24.6948 13.9915 24.2251 13.5263 23.6456 13.5263C23.0662 13.5263 22.5965 13.9915 22.5965 14.5653C22.5965 15.1392 23.0662 15.6043 23.6456 15.6043Z" fill="#134CB3"/>
<path d="M24.5602 11.8942C24.0773 11.8942 23.6874 11.5081 23.6874 11.0299C23.6874 10.5518 24.0773 10.1656 24.5602 10.1656C25.043 10.1656 25.4329 10.5518 25.4329 11.0299C25.4376 11.5081 25.043 11.8942 24.5602 11.8942Z" fill="#134CB3"/>
<path d="M24.899 8.01865C24.5509 8.01865 24.2677 7.73822 24.2677 7.39342C24.2677 7.04861 24.5509 6.76817 24.899 6.76817C25.2472 6.76817 25.5304 7.04861 25.5304 7.39342C25.5304 7.73822 25.2472 8.01865 24.899 8.01865Z" fill="#134CB3"/>
<path d="M24.6762 4.04192C24.5137 4.04192 24.3791 3.9086 24.3791 3.74769C24.3791 3.58678 24.5137 3.45345 24.6762 3.45345C24.8387 3.45345 24.9733 3.58678 24.9733 3.74769C24.9733 3.9132 24.8387 4.04192 24.6762 4.04192Z" fill="#134CB3"/>
<path d="M65.1593 22.1118C62.959 22.1118 61.0688 21.6682 59.4886 20.7809C57.9284 19.8734 56.7282 18.603 55.8881 16.9695C55.048 15.3159 54.6279 13.3699 54.6279 11.1315C54.6279 9.45776 54.868 7.95541 55.348 6.62447C55.8281 5.27336 56.5182 4.12391 57.4183 3.17611C58.3184 2.20816 59.4185 1.4721 60.7187 0.967959C62.0389 0.443647 63.5191 0.181492 65.1593 0.181492C66.2594 0.181492 67.3396 0.322652 68.3997 0.604974C69.4598 0.887295 70.3899 1.29061 71.1901 1.81492C71.6101 2.07708 71.8901 2.39973 72.0302 2.78288C72.1702 3.14587 72.2002 3.50885 72.1202 3.87183C72.0402 4.21465 71.8701 4.50706 71.6101 4.74905C71.3701 4.99104 71.06 5.1322 70.68 5.17253C70.3199 5.1927 69.9199 5.06162 69.4798 4.7793C68.8598 4.37598 68.1897 4.08358 67.4696 3.90208C66.7495 3.72059 66.0194 3.62985 65.2793 3.62985C63.8591 3.62985 62.659 3.92225 61.6788 4.50706C60.6987 5.09187 59.9586 5.93883 59.4585 7.04795C58.9585 8.15707 58.7085 9.51826 58.7085 11.1315C58.7085 12.7246 58.9585 14.0858 59.4585 15.2151C59.9586 16.3444 60.6987 17.2014 61.6788 17.7862C62.659 18.3711 63.8591 18.6635 65.2793 18.6635C66.0394 18.6635 66.7895 18.5727 67.5296 18.3912C68.2697 18.1896 68.9698 17.8871 69.6299 17.4838C70.0699 17.2216 70.46 17.1107 70.8 17.151C71.16 17.1712 71.4601 17.2922 71.7001 17.514C71.9401 17.7358 72.1002 18.0182 72.1802 18.361C72.2602 18.6836 72.2402 19.0264 72.1202 19.3894C72.0002 19.7322 71.7601 20.0347 71.4001 20.2969C70.6 20.8817 69.6399 21.3354 68.5197 21.6581C67.4196 21.9606 66.2994 22.1118 65.1593 22.1118Z" fill="#101A29"/>
<path d="M76.6114 22.0513C76.0113 22.0513 75.5512 21.89 75.2312 21.5673C74.9112 21.2245 74.7511 20.7405 74.7511 20.1154V2.14766C74.7511 1.52252 74.9112 1.04862 75.2312 0.725969C75.5512 0.403315 76.0113 0.241988 76.6114 0.241988C77.2114 0.241988 77.6715 0.403315 77.9915 0.725969C78.3316 1.04862 78.5016 1.52252 78.5016 2.14766V9.98207H78.0816C78.5216 8.91329 79.2017 8.10665 80.1218 7.56218C81.0619 6.99754 82.1221 6.71521 83.3022 6.71521C84.4824 6.71521 85.4525 6.93704 86.2126 7.38069C86.9727 7.82433 87.5428 8.49989 87.9228 9.40735C88.3029 10.2946 88.4929 11.4239 88.4929 12.7952V20.1154C88.4929 20.7405 88.3329 21.2245 88.0128 21.5673C87.6928 21.89 87.2327 22.0513 86.6327 22.0513C86.0326 22.0513 85.5625 21.89 85.2225 21.5673C84.9024 21.2245 84.7424 20.7405 84.7424 20.1154V12.9767C84.7424 11.8272 84.5224 10.9904 84.0823 10.4661C83.6623 9.94174 83.0022 9.67959 82.1021 9.67959C81.0019 9.67959 80.1218 10.0325 79.4617 10.7383C78.8217 11.4239 78.5016 12.3415 78.5016 13.4909V20.1154C78.5016 21.406 77.8715 22.0513 76.6114 22.0513Z" fill="#101A29"/>
<path d="M93.5624 22.0211C92.9623 22.0211 92.5022 21.8396 92.1822 21.4766C91.8622 21.1136 91.7021 20.6095 91.7021 19.9642V8.86287C91.7021 8.1974 91.8622 7.69326 92.1822 7.35044C92.5022 6.98745 92.9623 6.80596 93.5624 6.80596C94.1624 6.80596 94.6225 6.98745 94.9425 7.35044C95.2826 7.69326 95.4526 8.1974 95.4526 8.86287V19.9642C95.4526 20.6095 95.2926 21.1136 94.9725 21.4766C94.6525 21.8396 94.1824 22.0211 93.5624 22.0211ZM93.5624 3.99283C92.8623 3.99283 92.3122 3.82142 91.9122 3.4786C91.5321 3.11562 91.3421 2.62155 91.3421 1.99641C91.3421 1.35111 91.5321 0.857046 91.9122 0.514227C92.3122 0.171409 92.8623 0 93.5624 0C94.2825 0 94.8325 0.171409 95.2126 0.514227C95.5926 0.857046 95.7827 1.35111 95.7827 1.99641C95.7827 2.62155 95.5926 3.11562 95.2126 3.4786C94.8325 3.82142 94.2825 3.99283 93.5624 3.99283Z" fill="#101A29"/>
<path d="M100.67 22.0513C100.05 22.0513 99.5696 21.89 99.2296 21.5673C98.9095 21.2245 98.7495 20.7405 98.7495 20.1154V8.68138C98.7495 8.05624 98.9095 7.58234 99.2296 7.25969C99.5496 6.93704 99.9997 6.77571 100.58 6.77571C101.16 6.77571 101.61 6.93704 101.93 7.25969C102.25 7.58234 102.41 8.05624 102.41 8.68138V10.587H102.11C102.39 9.3771 102.94 8.45956 103.76 7.83442C104.58 7.20928 105.67 6.83621 107.031 6.71521C107.451 6.67488 107.781 6.78579 108.021 7.04795C108.281 7.28994 108.431 7.67309 108.471 8.1974C108.511 8.70155 108.391 9.11495 108.111 9.4376C107.851 9.74009 107.451 9.92158 106.911 9.98207L106.25 10.0426C105.03 10.1636 104.11 10.5467 103.49 11.192C102.87 11.8172 102.56 12.7045 102.56 13.8539V20.1154C102.56 20.7405 102.4 21.2245 102.08 21.5673C101.76 21.89 101.29 22.0513 100.67 22.0513Z" fill="#101A29"/>
<path d="M116.355 22.1118C114.835 22.1118 113.515 21.7992 112.395 21.1741C111.275 20.549 110.405 19.6617 109.785 18.5122C109.165 17.3426 108.854 15.9713 108.854 14.3984C108.854 13.2086 109.025 12.1499 109.365 11.2223C109.725 10.2745 110.235 9.46785 110.895 8.80238C111.555 8.11674 112.345 7.60251 113.265 7.25969C114.185 6.89671 115.215 6.71521 116.355 6.71521C117.876 6.71521 119.196 7.02778 120.316 7.65292C121.436 8.27806 122.306 9.16536 122.926 10.3148C123.546 11.4643 123.856 12.8255 123.856 14.3984C123.856 15.5882 123.676 16.657 123.316 17.6048C122.976 18.5525 122.476 19.3693 121.816 20.0549C121.156 20.7204 120.366 21.2346 119.446 21.5976C118.526 21.9404 117.496 22.1118 116.355 22.1118ZM116.355 19.2382C117.096 19.2382 117.746 19.0567 118.306 18.6937C118.866 18.3307 119.296 17.7963 119.596 17.0905C119.916 16.3646 120.076 15.4672 120.076 14.3984C120.076 12.7851 119.736 11.5853 119.056 10.7988C118.376 9.99216 117.476 9.58884 116.355 9.58884C115.615 9.58884 114.965 9.77033 114.405 10.1333C113.845 10.4761 113.405 11.0105 113.085 11.7365C112.785 12.4423 112.635 13.3296 112.635 14.3984C112.635 15.9915 112.975 17.2014 113.655 18.0282C114.335 18.8349 115.235 19.2382 116.355 19.2382Z" fill="#101A29"/>
<path d="M129.086 22.0513C128.486 22.0513 128.016 21.89 127.676 21.5673C127.356 21.2245 127.196 20.7405 127.196 20.1154V9.86108H125.815C125.335 9.86108 124.965 9.74009 124.705 9.4981C124.445 9.23594 124.315 8.88304 124.315 8.43939C124.315 7.97558 124.445 7.62267 124.705 7.38069C124.965 7.1387 125.335 7.0177 125.815 7.0177H128.276L127.196 8.01591V6.98745C127.196 4.95071 127.706 3.40802 128.726 2.3594C129.746 1.31078 131.226 0.685636 133.166 0.483979L134.066 0.393234C134.526 0.352901 134.886 0.413399 135.147 0.574725C135.427 0.736052 135.607 0.957876 135.687 1.2402C135.787 1.50235 135.807 1.78467 135.747 2.08716C135.687 2.36948 135.567 2.62155 135.387 2.84338C135.207 3.04504 134.977 3.15595 134.696 3.17611L133.976 3.23661C132.916 3.31728 132.146 3.60968 131.666 4.11382C131.186 4.61797 130.946 5.37419 130.946 6.38248V7.50168L130.466 7.0177H138.777C139.377 7.0177 139.837 7.19919 140.157 7.56218C140.477 7.905 140.637 8.39906 140.637 9.04436V19.9642C140.637 20.6095 140.477 21.1136 140.157 21.4766C139.857 21.8396 139.397 22.0211 138.777 22.0211C138.177 22.0211 137.707 21.8396 137.367 21.4766C137.047 21.1136 136.887 20.6095 136.887 19.9642V9.86108H130.946V20.1154C130.946 21.406 130.326 22.0513 129.086 22.0513ZM138.837 3.99283C138.157 3.99283 137.627 3.82142 137.247 3.4786C136.887 3.11562 136.707 2.62155 136.707 1.99641C136.707 1.35111 136.887 0.857046 137.247 0.514227C137.627 0.171409 138.157 0 138.837 0C139.537 0 140.067 0.171409 140.427 0.514227C140.807 0.857046 140.997 1.35111 140.997 1.99641C140.997 2.62155 140.807 3.11562 140.427 3.4786C140.067 3.82142 139.537 3.99283 138.837 3.99283Z" fill="#101A29"/>
<path d="M145.808 22.0513C145.208 22.0513 144.748 21.89 144.428 21.5673C144.108 21.2245 143.948 20.7405 143.948 20.1154V8.68138C143.948 8.05624 144.108 7.58234 144.428 7.25969C144.748 6.93704 145.198 6.77571 145.778 6.77571C146.358 6.77571 146.808 6.93704 147.128 7.25969C147.448 7.58234 147.608 8.05624 147.608 8.68138V10.7383L147.278 9.98207C147.718 8.91329 148.398 8.10665 149.318 7.56218C150.258 6.99754 151.318 6.71521 152.499 6.71521C153.679 6.71521 154.649 6.93704 155.409 7.38069C156.169 7.82433 156.739 8.49989 157.119 9.40735C157.499 10.2946 157.689 11.4239 157.689 12.7952V20.1154C157.689 20.7405 157.529 21.2245 157.209 21.5673C156.889 21.89 156.429 22.0513 155.829 22.0513C155.229 22.0513 154.759 21.89 154.419 21.5673C154.099 21.2245 153.939 20.7405 153.939 20.1154V12.9767C153.939 11.8272 153.719 10.9904 153.279 10.4661C152.859 9.94174 152.199 9.67959 151.298 9.67959C150.198 9.67959 149.318 10.0325 148.658 10.7383C148.018 11.4239 147.698 12.3415 147.698 13.4909V20.1154C147.698 21.406 147.068 22.0513 145.808 22.0513Z" fill="#101A29"/>
<path d="M166.539 22.1118C165.259 22.1118 164.129 21.7992 163.149 21.1741C162.189 20.549 161.439 19.6617 160.899 18.5122C160.358 17.3426 160.088 15.9713 160.088 14.3984C160.088 12.8053 160.358 11.4441 160.899 10.3148C161.439 9.16536 162.189 8.27806 163.149 7.65292C164.129 7.02778 165.259 6.71521 166.539 6.71521C167.759 6.71521 168.82 7.0177 169.72 7.62268C170.64 8.22765 171.26 9.0242 171.58 10.0123H171.25V2.14766C171.25 1.52252 171.41 1.04862 171.73 0.725969C172.05 0.403315 172.51 0.241988 173.11 0.241988C173.71 0.241988 174.17 0.403315 174.49 0.725969C174.83 1.04862 175 1.52252 175 2.14766V20.1154C175 20.7405 174.84 21.2245 174.52 21.5673C174.2 21.89 173.74 22.0513 173.14 22.0513C172.54 22.0513 172.08 21.89 171.76 21.5673C171.44 21.2245 171.28 20.7405 171.28 20.1154V17.756L171.61 18.6635C171.31 19.7121 170.7 20.549 169.78 21.1741C168.86 21.7992 167.779 22.1118 166.539 22.1118ZM167.589 19.2382C168.329 19.2382 168.98 19.0567 169.54 18.6937C170.1 18.3307 170.53 17.7963 170.83 17.0905C171.15 16.3646 171.31 15.4672 171.31 14.3984C171.31 12.7851 170.97 11.5853 170.29 10.7988C169.61 9.99216 168.71 9.58884 167.589 9.58884C166.849 9.58884 166.199 9.77033 165.639 10.1333C165.079 10.4761 164.639 11.0105 164.319 11.7365C164.019 12.4423 163.869 13.3296 163.869 14.3984C163.869 15.9915 164.209 17.2014 164.889 18.0282C165.569 18.8349 166.469 19.2382 167.589 19.2382Z" fill="#101A29"/>
<path d="M55.8403 39.9586V31.8351H58.3221C58.981 31.8351 59.5451 31.938 60.0142 32.1438C60.4869 32.3496 60.8486 32.6439 61.0993 33.0266C61.35 33.4093 61.4753 33.8678 61.4753 34.4021C61.4753 34.9329 61.35 35.3914 61.0993 35.7777C60.8486 36.164 60.4869 36.4619 60.0142 36.6713C59.5451 36.8771 58.981 36.98 58.3221 36.98H56.7858V39.9586H55.8403ZM56.7858 36.1351H58.2415C58.9649 36.1351 59.5236 35.9817 59.9175 35.6748C60.3114 35.3679 60.5084 34.9437 60.5084 34.4021C60.5084 33.8606 60.3114 33.4382 59.9175 33.1349C59.5236 32.8316 58.9649 32.68 58.2415 32.68H56.7858V36.1351Z" fill="#67687A"/>
<path d="M63.7154 39.9586H62.7699V31.8351H63.7154V35.5286H68.2115V31.8351H69.157V39.9586H68.2115V36.3734H63.7154V39.9586Z" fill="#67687A"/>
<path d="M74.2011 39.9586H73.2556V36.4872L70.1293 31.8351H71.2788L73.7284 35.6911L76.1886 31.8351H77.3328L74.2011 36.498V39.9586Z" fill="#67687A"/>
<path d="M77.9291 39.1679L78.3857 38.4368C78.6185 38.6281 78.8513 38.787 79.084 38.9134C79.3168 39.0397 79.5532 39.1336 79.7931 39.195C80.0366 39.2563 80.2837 39.287 80.5344 39.287C80.8997 39.287 81.2184 39.2257 81.4906 39.1029C81.7663 38.9801 81.9812 38.8105 82.1352 38.5938C82.2892 38.3736 82.3662 38.1209 82.3662 37.8356C82.3662 37.5252 82.2785 37.2688 82.103 37.0666C81.9311 36.8608 81.7073 36.6857 81.4315 36.5413C81.1558 36.3969 80.8621 36.2597 80.5505 36.1297C80.2891 36.0178 80.0295 35.8987 79.7716 35.7723C79.5138 35.6459 79.2792 35.4997 79.0679 35.3336C78.8602 35.1639 78.6937 34.96 78.5683 34.7217C78.443 34.4834 78.3803 34.1963 78.3803 33.8606C78.3803 33.4309 78.4878 33.0518 78.7026 32.7233C78.9175 32.3948 79.2147 32.1384 79.5944 31.9543C79.9775 31.7701 80.418 31.6781 80.9158 31.6781C81.2524 31.6781 81.5909 31.7232 81.9311 31.8135C82.2713 31.9001 82.6008 32.0283 82.9195 32.198L82.5327 32.9778C82.282 32.8298 82.0188 32.7161 81.7431 32.6366C81.4709 32.5572 81.2023 32.5175 80.9373 32.5175C80.6222 32.5175 80.3446 32.5717 80.1047 32.68C79.8683 32.7847 79.6821 32.9327 79.546 33.1241C79.4135 33.3118 79.3472 33.532 79.3472 33.7848C79.3472 34.0664 79.4278 34.3029 79.589 34.4942C79.7537 34.6856 79.965 34.8516 80.2229 34.9924C80.4843 35.1296 80.76 35.2632 81.0501 35.3932C81.3259 35.516 81.598 35.6459 81.8666 35.7831C82.1388 35.9167 82.3841 36.0756 82.6026 36.2597C82.8246 36.4402 83.0019 36.6568 83.1344 36.9096C83.2669 37.1623 83.3331 37.4674 83.3331 37.8248C83.3331 38.2833 83.2185 38.6859 82.9893 39.0325C82.7601 39.3755 82.4378 39.6427 82.0224 39.834C81.6106 40.0254 81.1271 40.121 80.572 40.121C80.085 40.121 79.6212 40.0416 79.1807 39.8828C78.7402 39.7239 78.323 39.4856 77.9291 39.1679Z" fill="#67687A"/>
<path d="M85.6752 31.8351V39.9586H84.7298V31.8351H85.6752Z" fill="#67687A"/>
<path d="M91.1544 40.121C90.5492 40.121 89.9905 40.0163 89.4784 39.8069C88.9699 39.5975 88.5276 39.3033 88.1516 38.9242C87.7756 38.5415 87.4837 38.0938 87.276 37.5811C87.0683 37.0648 86.9644 36.5034 86.9644 35.8969C86.9644 35.2867 87.0683 34.7253 87.276 34.2126C87.4837 33.6963 87.7756 33.2486 88.1516 32.8695C88.5276 32.4904 88.9699 32.1962 89.4784 31.9868C89.9905 31.7774 90.5492 31.6727 91.1544 31.6727C91.7596 31.6727 92.3165 31.7774 92.8251 31.9868C93.3336 32.1962 93.7759 32.4904 94.1519 32.8695C94.5279 33.2486 94.8198 33.6963 95.0275 34.2126C95.2352 34.7253 95.339 35.2867 95.339 35.8969C95.339 36.5034 95.2352 37.0648 95.0275 37.5811C94.8198 38.0938 94.5279 38.5415 94.1519 38.9242C93.7759 39.3033 93.3336 39.5975 92.8251 39.8069C92.3165 40.0163 91.7596 40.121 91.1544 40.121ZM91.1544 39.2762C91.6164 39.2762 92.0426 39.1914 92.4329 39.0217C92.8268 38.852 93.1688 38.6155 93.4589 38.3122C93.749 38.0053 93.9728 37.6479 94.1304 37.2399C94.2915 36.8283 94.3721 36.3806 94.3721 35.8969C94.3721 35.4131 94.2915 34.9654 94.1304 34.5538C93.9728 34.1422 93.749 33.7848 93.4589 33.4815C93.1688 33.1746 92.8268 32.9381 92.4329 32.772C92.0426 32.6024 91.6164 32.5175 91.1544 32.5175C90.6925 32.5175 90.2645 32.6024 89.8706 32.772C89.4802 32.9381 89.14 33.1746 88.8499 33.4815C88.5599 33.7848 88.3342 34.1422 88.1731 34.5538C88.0119 34.9654 87.9314 35.4131 87.9314 35.8969C87.9314 36.3806 88.0119 36.8283 88.1731 37.2399C88.3342 37.6515 88.5599 38.0108 88.8499 38.3176C89.14 38.6209 89.4802 38.8574 89.8706 39.0271C90.2645 39.1932 90.6925 39.2762 91.1544 39.2762Z" fill="#67687A"/>
<path d="M102.21 39.9586H101.264V32.68H98.6749V31.8351H104.799V32.68H102.21V39.9586Z" fill="#67687A"/>
<path d="M106.765 39.9586H105.819V31.8351H106.765V35.5286H111.261V31.8351H112.206V39.9586H111.261V36.3734H106.765V39.9586Z" fill="#67687A"/>
<path d="M113.877 39.9586V31.8351H118.814V32.68H114.822V35.4094H118.593V36.2543H114.822V39.1137H118.867V39.9586H113.877Z" fill="#67687A"/>
<path d="M126.307 39.9586H125.255L123.331 36.655H121.43V39.9586H120.484V31.8351H123.272C123.849 31.8351 124.345 31.9326 124.76 32.1276C125.176 32.3225 125.496 32.6005 125.722 32.9616C125.947 33.319 126.06 33.7469 126.06 34.2451C126.06 34.8264 125.906 35.3138 125.598 35.7073C125.294 36.1008 124.866 36.3734 124.314 36.5251L126.307 39.9586ZM121.43 35.8102H123.213C123.797 35.8102 124.255 35.6712 124.588 35.3932C124.925 35.1152 125.093 34.7325 125.093 34.2451C125.093 33.7577 124.927 33.375 124.594 33.097C124.261 32.819 123.801 32.68 123.213 32.68H121.43V35.8102Z" fill="#67687A"/>
<path d="M127.946 39.9586H126.952L130.261 31.8351H131.287L134.591 39.9586H133.597L132.721 37.7652H128.821L127.946 39.9586ZM129.154 36.9204H132.388L130.771 32.8641L129.154 36.9204Z" fill="#67687A"/>
<path d="M135.665 39.9586V31.8351H138.147C138.806 31.8351 139.37 31.938 139.839 32.1438C140.312 32.3496 140.673 32.6439 140.924 33.0266C141.175 33.4093 141.3 33.8678 141.3 34.4021C141.3 34.9329 141.175 35.3914 140.924 35.7777C140.673 36.164 140.312 36.4619 139.839 36.6713C139.37 36.8771 138.806 36.98 138.147 36.98H136.61V39.9586H135.665ZM136.61 36.1351H138.066C138.79 36.1351 139.348 35.9817 139.742 35.6748C140.136 35.3679 140.333 34.9437 140.333 34.4021C140.333 33.8606 140.136 33.4382 139.742 33.1349C139.348 32.8316 138.79 32.68 138.066 32.68H136.61V36.1351Z" fill="#67687A"/>
<path d="M145.861 39.9586H144.915V36.4872L141.789 31.8351H142.938L145.388 35.6911L147.848 31.8351H148.992L145.861 36.498V39.9586Z" fill="#67687A"/>
</svg>
